<svg xmlns="http://www.w3.org/2000/svg" version="1.1" xmlns:xlink="http://www.w3.org/1999/xlink" xmlns:svgjs="http://svgjs.dev/svgjs" width="1440" height="560" preserveAspectRatio="none" viewBox="0 0 1440 560"><g mask="url(&quot;#SvgjsMask1030&quot;)" fill="none"><rect width="1440" height="560" x="0" y="0" fill="rgba(249, 250, 252, 1)"></rect><path d="M1248.897208068917 216.07106959583038L1152.98724207137 338.83022801831356 1275.7464004938531 434.74019401586065 1371.6563664914001 311.9810355933775z" fill="rgba(201, 241, 196, 0.21)" class="triangle-float1"></path><path d="M1247.6078363411875 544.8984737013441L1229.5012709663108 397.43233266757863 1082.0351299325453 415.53889804245534 1100.141695307422 563.0050390762208z" fill="rgba(201, 241, 196, 0.21)" class="triangle-float3"></path><path d="M463.3604430955777 287.0141670797506L355.4565783800387 365.41091373172674 433.8533250320149 473.3147784472657 541.7571897475539 394.9180317952896z" fill="rgba(201, 241, 196, 0.21)" class="triangle-float2"></path><path d="M156.7068812229861 258.4796443971834L156.70688122298614 376.06251490549397 274.28975173129675 376.06251490549397 274.2897517312967 258.47964439718334z" fill="rgba(201, 241, 196, 0.21)" class="triangle-float3"></path><path d="M658.3400564008592 290.80192839198764L630.6161766103094 160.3713287778054 500.1855769961271 188.09520856835528 527.909456786677 318.52580818253756z" fill="rgba(201, 241, 196, 0.21)" class="triangle-float3"></path><path d="M1318.301345396703 458.76769447698666L1475.3146899055394 410.76389766219665 1427.3108930907495 253.75055315336027 1270.297548581913 301.7543499681503z" fill="rgba(201, 241, 196, 0.21)" class="triangle-float2"></path><path d="M532.0753877072021-86.297605460895L505.214790144934 51.888189599433844 643.4005852052628 78.74878716170198 670.261182767531-59.43700789862687z" fill="rgba(201, 241, 196, 0.21)" class="triangle-float1"></path><path d="M447.52309170567264 58.05969865626466L360.22234895128867 56.53585852320527 358.69850881822924 143.83660127758924 445.9992515726133 145.36044141064863z" fill="rgba(201, 241, 196, 0.21)" class="triangle-float2"></path><path d="M123.30055451046597 291.7576988346375L242.97126049966928 252.87432939664808 204.0878910616799 133.20362340744478 84.41718507247657 172.08699284543417z" fill="rgba(201, 241, 196, 0.21)" class="triangle-float3"></path><path d="M506.5963011417808-46.587747817616574L384.64155598937236-31.613587984052465 399.61571582293647 90.34115716835599 521.570460975345 75.36699733479188z" fill="rgba(201, 241, 196, 0.21)" class="triangle-float1"></path><path d="M579.8284712820011 27.900949091276637L428.1040109407909 54.65406508286349 454.85712693237775 206.37852542407376 606.581587273588 179.6254094324869z" fill="rgba(201, 241, 196, 0.21)" class="triangle-float3"></path><path d="M1333.8398040108918 594.8289734451007L1297.699376650292 483.6001751309042 1186.4705783360955 519.7406024915042 1222.6110056966954 630.9694008057006z" fill="rgba(201, 241, 196, 0.21)" class="triangle-float1"></path><path d="M936.6431251012551 376.7197531243027L994.5594277053217 257.9737354051158 875.8134099861348 200.05743280104923 817.8971073820683 318.8034505202361z" fill="rgba(201, 241, 196, 0.21)" class="triangle-float2"></path><path d="M1421.7737284386617 76.64568193760802L1363.8653166851973 159.34746475691998 1446.567099504509 217.2558765103845 1504.4755112579737 134.55409369107252z" fill="rgba(201, 241, 196, 0.21)" class="triangle-float2"></path><path d="M765.3218032680765-72.93532619720341L756.5864170403629 93.7457724338964 923.2675156714628 102.4811586616099 932.0029018991763-64.1999399694899z" fill="rgba(201, 241, 196, 0.21)" class="triangle-float2"></path></g><defs><mask id="SvgjsMask1030"><rect width="1440" height="560" fill="#ffffff"></rect></mask><style>
                @keyframes float1 {
                    0%{transform: translate(0, 0)}
                    50%{transform: translate(-10px, 0)}
                    100%{transform: translate(0, 0)}
                }

                .triangle-float1 {
                    animation: float1 5s infinite;
                }

                @keyframes float2 {
                    0%{transform: translate(0, 0)}
                    50%{transform: translate(-5px, -5px)}
                    100%{transform: translate(0, 0)}
                }

                .triangle-float2 {
                    animation: float2 4s infinite;
                }

                @keyframes float3 {
                    0%{transform: translate(0, 0)}
                    50%{transform: translate(0, -10px)}
                    100%{transform: translate(0, 0)}
                }

                .triangle-float3 {
                    animation: float3 6s infinite;
                }
            </style></defs></svg>