<svg id="visual" viewBox="0 0 900 450" width="900" height="450" xmlns="http://www.w3.org/2000/svg" xmlns:xlink="http://www.w3.org/1999/xlink" version="1.1"><rect width="900" height="450" fill="#f7fff9"></rect><g><g transform="translate(859 228)"><path d="M0 -112.2L97.1 -56.1L97.1 56.1L0 112.2L-97.1 56.1L-97.1 -56.1Z" stroke="#e5fff1" fill="none" stroke-width="1"></path></g><g transform="translate(488 9)"><path d="M0 -77L66.7 -38.5L66.7 38.5L0 77L-66.7 38.5L-66.7 -38.5Z" stroke="#e5fff1" fill="none" stroke-width="1"></path></g><g transform="translate(140 334)"><path d="M0 -42L36.4 -21L36.4 21L0 42L-36.4 21L-36.4 -21Z" stroke="#e5fff1" fill="none" stroke-width="1"></path></g><g transform="translate(35 95)"><path d="M0 -77L66.7 -38.5L66.7 38.5L0 77L-66.7 38.5L-66.7 -38.5Z" stroke="#e5fff1" fill="none" stroke-width="1"></path></g><g transform="translate(366 329)"><path d="M0 -44L38.1 -22L38.1 22L0 44L-38.1 22L-38.1 -22Z" stroke="#e5fff1" fill="none" stroke-width="1"></path></g><g transform="translate(593 333)"><path d="M0 -52L45 -26L45 26L0 52L-45 26L-45 -26Z" stroke="#e5fff1" fill="none" stroke-width="1"></path></g><g transform="translate(262 18)"><path d="M0 -77L66.7 -38.5L66.7 38.5L0 77L-66.7 38.5L-66.7 -38.5Z" stroke="#e5fff1" fill="none" stroke-width="1"></path></g></g></svg>