<svg xmlns="http://www.w3.org/2000/svg" version="1.1" xmlns:xlink="http://www.w3.org/1999/xlink" xmlns:svgjs="http://svgjs.dev/svgjs" width="1440" height="560" preserveAspectRatio="none" viewBox="0 0 1440 560"><g mask="url(&quot;#SvgjsMask3149&quot;)" fill="none"><rect width="1440" height="560" x="0" y="0" fill="url(&quot;#SvgjsLinearGradient3150&quot;)"></rect><path d="M-80.35 345.27L-80.35 345.27" stroke="rgba(9, 191, 159, 0.14)" stroke-width="1.5"></path><path d="M-80.35 345.27L-79.71 496.74" stroke="rgba(9, 191, 159, 0.14)" stroke-width="1.5"></path><path d="M-80.35 345.27L74.21 530.76" stroke="rgba(9, 191, 159, 0.14)" stroke-width="1.5"></path><path d="M-80.35 345.27L208.69 406.39" stroke="rgba(9, 191, 159, 0.14)" stroke-width="1.5"></path><path d="M-80.35 345.27L192.61 526.6" stroke="rgba(9, 191, 159, 0.14)" stroke-width="1.5"></path><path d="M-80.35 345.27L-42.45 700.31" stroke="rgba(9, 191, 159, 0.14)" stroke-width="1.5"></path><path d="M-80.35 345.27L47.12 693.76" stroke="rgba(9, 191, 159, 0.14)" stroke-width="1.5"></path><path d="M-79.71 496.74L-79.71 496.74" stroke="rgba(9, 191, 159, 0.14)" stroke-width="1.5"></path><path d="M-79.71 496.74L74.21 530.76" stroke="rgba(9, 191, 159, 0.14)" stroke-width="1.5"></path><path d="M-79.71 496.74L-42.45 700.31" stroke="rgba(9, 191, 159, 0.14)" stroke-width="1.5"></path><path d="M-42.45 700.31L-42.45 700.31" stroke="rgba(9, 191, 159, 0.14)" stroke-width="1.5"></path><path d="M-42.45 700.31L47.12 693.76" stroke="rgba(9, 191, 159, 0.14)" stroke-width="1.5"></path><path d="M-42.45 700.31L74.21 530.76" stroke="rgba(9, 191, 159, 0.14)" stroke-width="1.5"></path><path d="M-42.45 700.31L201.72 686.55" stroke="rgba(9, 191, 159, 0.14)" stroke-width="1.5"></path><path d="M74.21 530.76L74.21 530.76" stroke="rgba(9, 191, 159, 0.14)" stroke-width="1.5"></path><path d="M74.21 530.76L192.61 526.6" stroke="rgba(9, 191, 159, 0.14)" stroke-width="1.5"></path><path d="M74.21 530.76L47.12 693.76" stroke="rgba(9, 191, 159, 0.14)" stroke-width="1.5"></path><path d="M74.21 530.76L208.69 406.39" stroke="rgba(9, 191, 159, 0.14)" stroke-width="1.5"></path><path d="M47.12 693.76L47.12 693.76" stroke="rgba(9, 191, 159, 0.14)" stroke-width="1.5"></path><path d="M47.12 693.76L201.72 686.55" stroke="rgba(9, 191, 159, 0.14)" stroke-width="1.5"></path><path d="M47.12 693.76L192.61 526.6" stroke="rgba(9, 191, 159, 0.14)" stroke-width="1.5"></path><path d="M47.12 693.76L-79.71 496.74" stroke="rgba(9, 191, 159, 0.14)" stroke-width="1.5"></path><path d="M208.69 406.39L208.69 406.39" stroke="rgba(9, 191, 159, 0.14)" stroke-width="1.5"></path><path d="M208.69 406.39L192.61 526.6" stroke="rgba(9, 191, 159, 0.14)" stroke-width="1.5"></path><path d="M208.69 406.39L351.86 390.07" stroke="rgba(9, 191, 159, 0.14)" stroke-width="1.5"></path><path d="M208.69 406.39L341.41 536.63" stroke="rgba(9, 191, 159, 0.14)" stroke-width="1.5"></path><path d="M208.69 406.39L201.72 686.55" stroke="rgba(9, 191, 159, 0.14)" stroke-width="1.5"></path><path d="M192.61 526.6L192.61 526.6" stroke="rgba(9, 191, 159, 0.14)" stroke-width="1.5"></path><path d="M192.61 526.6L341.41 536.63" stroke="rgba(9, 191, 159, 0.14)" stroke-width="1.5"></path><path d="M192.61 526.6L201.72 686.55" stroke="rgba(9, 191, 159, 0.14)" stroke-width="1.5"></path><path d="M192.61 526.6L351.86 390.07" stroke="rgba(9, 191, 159, 0.14)" stroke-width="1.5"></path><path d="M201.72 686.55L201.72 686.55" stroke="rgba(9, 191, 159, 0.14)" stroke-width="1.5"></path><path d="M201.72 686.55L357.5 706.41" stroke="rgba(9, 191, 159, 0.14)" stroke-width="1.5"></path><path d="M201.72 686.55L74.21 530.76" stroke="rgba(9, 191, 159, 0.14)" stroke-width="1.5"></path><path d="M201.72 686.55L341.41 536.63" stroke="rgba(9, 191, 159, 0.14)" stroke-width="1.5"></path><path d="M351.86 390.07L351.86 390.07" stroke="rgba(9, 191, 159, 0.14)" stroke-width="1.5"></path><path d="M351.86 390.07L489.35 347.36" stroke="rgba(9, 191, 159, 0.14)" stroke-width="1.5"></path><path d="M351.86 390.07L341.41 536.63" stroke="rgba(9, 191, 159, 0.14)" stroke-width="1.5"></path><path d="M351.86 390.07L526.12 546.52" stroke="rgba(9, 191, 159, 0.14)" stroke-width="1.5"></path><path d="M351.86 390.07L74.21 530.76" stroke="rgba(9, 191, 159, 0.14)" stroke-width="1.5"></path><path d="M341.41 536.63L341.41 536.63" stroke="rgba(9, 191, 159, 0.14)" stroke-width="1.5"></path><path d="M357.5 706.41L357.5 706.41" stroke="rgba(9, 191, 159, 0.14)" stroke-width="1.5"></path><path d="M357.5 706.41L513.11 689.62" stroke="rgba(9, 191, 159, 0.14)" stroke-width="1.5"></path><path d="M357.5 706.41L341.41 536.63" stroke="rgba(9, 191, 159, 0.14)" stroke-width="1.5"></path><path d="M357.5 706.41L526.12 546.52" stroke="rgba(9, 191, 159, 0.14)" stroke-width="1.5"></path><path d="M357.5 706.41L192.61 526.6" stroke="rgba(9, 191, 159, 0.14)" stroke-width="1.5"></path><path d="M489.35 347.36L489.35 347.36" stroke="rgba(9, 191, 159, 0.14)" stroke-width="1.5"></path><path d="M489.35 347.36L526.12 546.52" stroke="rgba(9, 191, 159, 0.14)" stroke-width="1.5"></path><path d="M489.35 347.36L698.52 343.13" stroke="rgba(9, 191, 159, 0.14)" stroke-width="1.5"></path><path d="M526.12 546.52L526.12 546.52" stroke="rgba(9, 191, 159, 0.14)" stroke-width="1.5"></path><path d="M526.12 546.52L652.76 502.22" stroke="rgba(9, 191, 159, 0.14)" stroke-width="1.5"></path><path d="M526.12 546.52L513.11 689.62" stroke="rgba(9, 191, 159, 0.14)" stroke-width="1.5"></path><path d="M513.11 689.62L513.11 689.62" stroke="rgba(9, 191, 159, 0.14)" stroke-width="1.5"></path><path d="M513.11 689.62L704.86 670.64" stroke="rgba(9, 191, 159, 0.14)" stroke-width="1.5"></path><path d="M513.11 689.62L341.41 536.63" stroke="rgba(9, 191, 159, 0.14)" stroke-width="1.5"></path><path d="M513.11 689.62L652.76 502.22" stroke="rgba(9, 191, 159, 0.14)" stroke-width="1.5"></path><path d="M513.11 689.62L821.92 707.95" stroke="rgba(9, 191, 159, 0.14)" stroke-width="1.5"></path><path d="M699.09 213.25L699.09 213.25" stroke="rgba(9, 191, 159, 0.14)" stroke-width="1.5"></path><path d="M699.09 213.25L698.52 343.13" stroke="rgba(9, 191, 159, 0.14)" stroke-width="1.5"></path><path d="M699.09 213.25L841.97 225.07" stroke="rgba(9, 191, 159, 0.14)" stroke-width="1.5"></path><path d="M698.52 343.13L698.52 343.13" stroke="rgba(9, 191, 159, 0.14)" stroke-width="1.5"></path><path d="M698.52 343.13L796.86 371.35" stroke="rgba(9, 191, 159, 0.14)" stroke-width="1.5"></path><path d="M698.52 343.13L652.76 502.22" stroke="rgba(9, 191, 159, 0.14)" stroke-width="1.5"></path><path d="M652.76 502.22L652.76 502.22" stroke="rgba(9, 191, 159, 0.14)" stroke-width="1.5"></path><path d="M652.76 502.22L809.54 490.82" stroke="rgba(9, 191, 159, 0.14)" stroke-width="1.5"></path><path d="M652.76 502.22L704.86 670.64" stroke="rgba(9, 191, 159, 0.14)" stroke-width="1.5"></path><path d="M652.76 502.22L796.86 371.35" stroke="rgba(9, 191, 159, 0.14)" stroke-width="1.5"></path><path d="M652.76 502.22L489.35 347.36" stroke="rgba(9, 191, 159, 0.14)" stroke-width="1.5"></path><path d="M704.86 670.64L704.86 670.64" stroke="rgba(9, 191, 159, 0.14)" stroke-width="1.5"></path><path d="M704.86 670.64L821.92 707.95" stroke="rgba(9, 191, 159, 0.14)" stroke-width="1.5"></path><path d="M704.86 670.64L809.54 490.82" stroke="rgba(9, 191, 159, 0.14)" stroke-width="1.5"></path><path d="M704.86 670.64L526.12 546.52" stroke="rgba(9, 191, 159, 0.14)" stroke-width="1.5"></path><path d="M704.86 670.64L970.54 710.99" stroke="rgba(9, 191, 159, 0.14)" stroke-width="1.5"></path><path d="M831.3 91.95L831.3 91.95" stroke="rgba(9, 191, 159, 0.14)" stroke-width="1.5"></path><path d="M831.3 91.95L841.97 225.07" stroke="rgba(9, 191, 159, 0.14)" stroke-width="1.5"></path><path d="M831.3 91.95L999.2 90.44" stroke="rgba(9, 191, 159, 0.14)" stroke-width="1.5"></path><path d="M831.3 91.95L699.09 213.25" stroke="rgba(9, 191, 159, 0.14)" stroke-width="1.5"></path><path d="M841.97 225.07L841.97 225.07" stroke="rgba(9, 191, 159, 0.14)" stroke-width="1.5"></path><path d="M841.97 225.07L796.86 371.35" stroke="rgba(9, 191, 159, 0.14)" stroke-width="1.5"></path><path d="M841.97 225.07L957.41 369.73" stroke="rgba(9, 191, 159, 0.14)" stroke-width="1.5"></path><path d="M841.97 225.07L698.52 343.13" stroke="rgba(9, 191, 159, 0.14)" stroke-width="1.5"></path><path d="M841.97 225.07L999.2 90.44" stroke="rgba(9, 191, 159, 0.14)" stroke-width="1.5"></path><path d="M796.86 371.35L796.86 371.35" stroke="rgba(9, 191, 159, 0.14)" stroke-width="1.5"></path><path d="M796.86 371.35L809.54 490.82" stroke="rgba(9, 191, 159, 0.14)" stroke-width="1.5"></path><path d="M796.86 371.35L957.41 369.73" stroke="rgba(9, 191, 159, 0.14)" stroke-width="1.5"></path><path d="M796.86 371.35L699.09 213.25" stroke="rgba(9, 191, 159, 0.14)" stroke-width="1.5"></path><path d="M809.54 490.82L809.54 490.82" stroke="rgba(9, 191, 159, 0.14)" stroke-width="1.5"></path><path d="M809.54 490.82L963.36 508.72" stroke="rgba(9, 191, 159, 0.14)" stroke-width="1.5"></path><path d="M809.54 490.82L698.52 343.13" stroke="rgba(9, 191, 159, 0.14)" stroke-width="1.5"></path><path d="M809.54 490.82L957.41 369.73" stroke="rgba(9, 191, 159, 0.14)" stroke-width="1.5"></path><path d="M821.92 707.95L821.92 707.95" stroke="rgba(9, 191, 159, 0.14)" stroke-width="1.5"></path><path d="M821.92 707.95L970.54 710.99" stroke="rgba(9, 191, 159, 0.14)" stroke-width="1.5"></path><path d="M941.38 -61.03L941.38 -61.03" stroke="rgba(9, 191, 159, 0.14)" stroke-width="1.5"></path><path d="M941.38 -61.03L999.2 90.44" stroke="rgba(9, 191, 159, 0.14)" stroke-width="1.5"></path><path d="M941.38 -61.03L1115.22 -75.97" stroke="rgba(9, 191, 159, 0.14)" stroke-width="1.5"></path><path d="M941.38 -61.03L831.3 91.95" stroke="rgba(9, 191, 159, 0.14)" stroke-width="1.5"></path><path d="M999.2 90.44L999.2 90.44" stroke="rgba(9, 191, 159, 0.14)" stroke-width="1.5"></path><path d="M999.2 90.44L1091.14 81.91" stroke="rgba(9, 191, 159, 0.14)" stroke-width="1.5"></path><path d="M957.41 369.73L957.41 369.73" stroke="rgba(9, 191, 159, 0.14)" stroke-width="1.5"></path><path d="M957.41 369.73L963.36 508.72" stroke="rgba(9, 191, 159, 0.14)" stroke-width="1.5"></path><path d="M963.36 508.72L963.36 508.72" stroke="rgba(9, 191, 159, 0.14)" stroke-width="1.5"></path><path d="M963.36 508.72L1125.13 561.59" stroke="rgba(9, 191, 159, 0.14)" stroke-width="1.5"></path><path d="M963.36 508.72L970.54 710.99" stroke="rgba(9, 191, 159, 0.14)" stroke-width="1.5"></path><path d="M970.54 710.99L970.54 710.99" stroke="rgba(9, 191, 159, 0.14)" stroke-width="1.5"></path><path d="M970.54 710.99L1112.39 712.45" stroke="rgba(9, 191, 159, 0.14)" stroke-width="1.5"></path><path d="M1115.22 -75.97L1115.22 -75.97" stroke="rgba(9, 191, 159, 0.14)" stroke-width="1.5"></path><path d="M1115.22 -75.97L1091.14 81.91" stroke="rgba(9, 191, 159, 0.14)" stroke-width="1.5"></path><path d="M1115.22 -75.97L1300.46 -64.53" stroke="rgba(9, 191, 159, 0.14)" stroke-width="1.5"></path><path d="M1091.14 81.91L1091.14 81.91" stroke="rgba(9, 191, 159, 0.14)" stroke-width="1.5"></path><path d="M1091.14 81.91L1147.59 228.1" stroke="rgba(9, 191, 159, 0.14)" stroke-width="1.5"></path><path d="M1091.14 81.91L1277.18 55.76" stroke="rgba(9, 191, 159, 0.14)" stroke-width="1.5"></path><path d="M1147.59 228.1L1147.59 228.1" stroke="rgba(9, 191, 159, 0.14)" stroke-width="1.5"></path><path d="M1147.59 228.1L1249.15 208.69" stroke="rgba(9, 191, 159, 0.14)" stroke-width="1.5"></path><path d="M1147.59 228.1L1152.19 360.02" stroke="rgba(9, 191, 159, 0.14)" stroke-width="1.5"></path><path d="M1152.19 360.02L1152.19 360.02" stroke="rgba(9, 191, 159, 0.14)" stroke-width="1.5"></path><path d="M1152.19 360.02L1274.04 410.02" stroke="rgba(9, 191, 159, 0.14)" stroke-width="1.5"></path><path d="M1152.19 360.02L1249.15 208.69" stroke="rgba(9, 191, 159, 0.14)" stroke-width="1.5"></path><path d="M1125.13 561.59L1125.13 561.59" stroke="rgba(9, 191, 159, 0.14)" stroke-width="1.5"></path><path d="M1125.13 561.59L1112.39 712.45" stroke="rgba(9, 191, 159, 0.14)" stroke-width="1.5"></path><path d="M1125.13 561.59L1298.58 528.88" stroke="rgba(9, 191, 159, 0.14)" stroke-width="1.5"></path><path d="M1125.13 561.59L1280.47 669.38" stroke="rgba(9, 191, 159, 0.14)" stroke-width="1.5"></path><path d="M1112.39 712.45L1112.39 712.45" stroke="rgba(9, 191, 159, 0.14)" stroke-width="1.5"></path><path d="M1112.39 712.45L1280.47 669.38" stroke="rgba(9, 191, 159, 0.14)" stroke-width="1.5"></path><path d="M1300.46 -64.53L1300.46 -64.53" stroke="rgba(9, 191, 159, 0.14)" stroke-width="1.5"></path><path d="M1300.46 -64.53L1277.18 55.76" stroke="rgba(9, 191, 159, 0.14)" stroke-width="1.5"></path><path d="M1300.46 -64.53L1435.71 95.1" stroke="rgba(9, 191, 159, 0.14)" stroke-width="1.5"></path><path d="M1300.46 -64.53L1091.14 81.91" stroke="rgba(9, 191, 159, 0.14)" stroke-width="1.5"></path><path d="M1300.46 -64.53L1249.15 208.69" stroke="rgba(9, 191, 159, 0.14)" stroke-width="1.5"></path><path d="M1300.46 -64.53L1607.92 -38.48" stroke="rgba(9, 191, 159, 0.14)" stroke-width="1.5"></path><path d="M1277.18 55.76L1277.18 55.76" stroke="rgba(9, 191, 159, 0.14)" stroke-width="1.5"></path><path d="M1277.18 55.76L1249.15 208.69" stroke="rgba(9, 191, 159, 0.14)" stroke-width="1.5"></path><path d="M1277.18 55.76L1435.71 95.1" stroke="rgba(9, 191, 159, 0.14)" stroke-width="1.5"></path><path d="M1249.15 208.69L1249.15 208.69" stroke="rgba(9, 191, 159, 0.14)" stroke-width="1.5"></path><path d="M1249.15 208.69L1430.09 261.83" stroke="rgba(9, 191, 159, 0.14)" stroke-width="1.5"></path><path d="M1249.15 208.69L1091.14 81.91" stroke="rgba(9, 191, 159, 0.14)" stroke-width="1.5"></path><path d="M1274.04 410.02L1274.04 410.02" stroke="rgba(9, 191, 159, 0.14)" stroke-width="1.5"></path><path d="M1274.04 410.02L1298.58 528.88" stroke="rgba(9, 191, 159, 0.14)" stroke-width="1.5"></path><path d="M1274.04 410.02L1448.18 339.46" stroke="rgba(9, 191, 159, 0.14)" stroke-width="1.5"></path><path d="M1274.04 410.02L1408.34 544.41" stroke="rgba(9, 191, 159, 0.14)" stroke-width="1.5"></path><path d="M1274.04 410.02L1249.15 208.69" stroke="rgba(9, 191, 159, 0.14)" stroke-width="1.5"></path><path d="M1298.58 528.88L1298.58 528.88" stroke="rgba(9, 191, 159, 0.14)" stroke-width="1.5"></path><path d="M1298.58 528.88L1408.34 544.41" stroke="rgba(9, 191, 159, 0.14)" stroke-width="1.5"></path><path d="M1298.58 528.88L1280.47 669.38" stroke="rgba(9, 191, 159, 0.14)" stroke-width="1.5"></path><path d="M1298.58 528.88L1406.11 650.7" stroke="rgba(9, 191, 159, 0.14)" stroke-width="1.5"></path><path d="M1280.47 669.38L1280.47 669.38" stroke="rgba(9, 191, 159, 0.14)" stroke-width="1.5"></path><path d="M1280.47 669.38L1406.11 650.7" stroke="rgba(9, 191, 159, 0.14)" stroke-width="1.5"></path><path d="M1280.47 669.38L1408.34 544.41" stroke="rgba(9, 191, 159, 0.14)" stroke-width="1.5"></path><path d="M1280.47 669.38L1274.04 410.02" stroke="rgba(9, 191, 159, 0.14)" stroke-width="1.5"></path><path d="M1435.71 95.1L1435.71 95.1" stroke="rgba(9, 191, 159, 0.14)" stroke-width="1.5"></path><path d="M1435.71 95.1L1588.31 104.3" stroke="rgba(9, 191, 159, 0.14)" stroke-width="1.5"></path><path d="M1435.71 95.1L1430.09 261.83" stroke="rgba(9, 191, 159, 0.14)" stroke-width="1.5"></path><path d="M1435.71 95.1L1559.61 220.43" stroke="rgba(9, 191, 159, 0.14)" stroke-width="1.5"></path><path d="M1435.71 95.1L1607.92 -38.48" stroke="rgba(9, 191, 159, 0.14)" stroke-width="1.5"></path><path d="M1430.09 261.83L1430.09 261.83" stroke="rgba(9, 191, 159, 0.14)" stroke-width="1.5"></path><path d="M1430.09 261.83L1448.18 339.46" stroke="rgba(9, 191, 159, 0.14)" stroke-width="1.5"></path><path d="M1430.09 261.83L1559.61 220.43" stroke="rgba(9, 191, 159, 0.14)" stroke-width="1.5"></path><path d="M1430.09 261.83L1274.04 410.02" stroke="rgba(9, 191, 159, 0.14)" stroke-width="1.5"></path><path d="M1448.18 339.46L1448.18 339.46" stroke="rgba(9, 191, 159, 0.14)" stroke-width="1.5"></path><path d="M1408.34 544.41L1408.34 544.41" stroke="rgba(9, 191, 159, 0.14)" stroke-width="1.5"></path><path d="M1408.34 544.41L1406.11 650.7" stroke="rgba(9, 191, 159, 0.14)" stroke-width="1.5"></path><path d="M1406.11 650.7L1406.11 650.7" stroke="rgba(9, 191, 159, 0.14)" stroke-width="1.5"></path><path d="M1406.11 650.7L1605.74 637.9" stroke="rgba(9, 191, 159, 0.14)" stroke-width="1.5"></path><path d="M1406.11 650.7L1590.18 533.97" stroke="rgba(9, 191, 159, 0.14)" stroke-width="1.5"></path><path d="M1406.11 650.7L1274.04 410.02" stroke="rgba(9, 191, 159, 0.14)" stroke-width="1.5"></path><path d="M1607.92 -38.48L1607.92 -38.48" stroke="rgba(9, 191, 159, 0.14)" stroke-width="1.5"></path><path d="M1607.92 -38.48L1588.31 104.3" stroke="rgba(9, 191, 159, 0.14)" stroke-width="1.5"></path><path d="M1607.92 -38.48L1559.61 220.43" stroke="rgba(9, 191, 159, 0.14)" stroke-width="1.5"></path><path d="M1588.31 104.3L1588.31 104.3" stroke="rgba(9, 191, 159, 0.14)" stroke-width="1.5"></path><path d="M1588.31 104.3L1559.61 220.43" stroke="rgba(9, 191, 159, 0.14)" stroke-width="1.5"></path><path d="M1588.31 104.3L1430.09 261.83" stroke="rgba(9, 191, 159, 0.14)" stroke-width="1.5"></path><path d="M1588.31 104.3L1448.18 339.46" stroke="rgba(9, 191, 159, 0.14)" stroke-width="1.5"></path><path d="M1559.61 220.43L1559.61 220.43" stroke="rgba(9, 191, 159, 0.14)" stroke-width="1.5"></path><path d="M1559.61 220.43L1448.18 339.46" stroke="rgba(9, 191, 159, 0.14)" stroke-width="1.5"></path><path d="M1559.61 220.43L1610.62 382.25" stroke="rgba(9, 191, 159, 0.14)" stroke-width="1.5"></path><path d="M1610.62 382.25L1610.62 382.25" stroke="rgba(9, 191, 159, 0.14)" stroke-width="1.5"></path><path d="M1610.62 382.25L1590.18 533.97" stroke="rgba(9, 191, 159, 0.14)" stroke-width="1.5"></path><path d="M1610.62 382.25L1448.18 339.46" stroke="rgba(9, 191, 159, 0.14)" stroke-width="1.5"></path><path d="M1610.62 382.25L1430.09 261.83" stroke="rgba(9, 191, 159, 0.14)" stroke-width="1.5"></path><path d="M1590.18 533.97L1590.18 533.97" stroke="rgba(9, 191, 159, 0.14)" stroke-width="1.5"></path><path d="M1590.18 533.97L1605.74 637.9" stroke="rgba(9, 191, 159, 0.14)" stroke-width="1.5"></path><path d="M1590.18 533.97L1408.34 544.41" stroke="rgba(9, 191, 159, 0.14)" stroke-width="1.5"></path><path d="M1605.74 637.9L1605.74 637.9" stroke="rgba(9, 191, 159, 0.14)" stroke-width="1.5"></path><path d="M1605.74 637.9L1408.34 544.41" stroke="rgba(9, 191, 159, 0.14)" stroke-width="1.5"></path><path d="M1605.74 637.9L1610.62 382.25" stroke="rgba(9, 191, 159, 0.14)" stroke-width="1.5"></path><circle r="5" cx="-80.35" cy="345.27" fill="rgba(9, 191, 159, 0.14)"></circle><circle r="5" cx="-79.71" cy="496.74" fill="rgba(9, 191, 159, 0.14)"></circle><circle r="5" cx="-42.45" cy="700.31" fill="rgba(9, 191, 159, 0.14)"></circle><circle r="5" cx="74.21" cy="530.76" fill="rgba(9, 191, 159, 0.14)"></circle><circle r="5" cx="47.12" cy="693.76" fill="rgba(9, 191, 159, 0.14)"></circle><circle r="5" cx="208.69" cy="406.39" fill="rgba(9, 191, 159, 0.14)"></circle><circle r="5" cx="192.61" cy="526.6" fill="rgba(9, 191, 159, 0.14)"></circle><circle r="5" cx="201.72" cy="686.55" fill="rgba(9, 191, 159, 0.14)"></circle><circle r="5" cx="351.86" cy="390.07" fill="rgba(9, 191, 159, 0.14)"></circle><circle r="5" cx="341.41" cy="536.63" fill="rgba(9, 191, 159, 0.14)"></circle><circle r="5" cx="357.5" cy="706.41" fill="rgba(9, 191, 159, 0.14)"></circle><circle r="5" cx="489.35" cy="347.36" fill="rgba(9, 191, 159, 0.14)"></circle><circle r="5" cx="526.12" cy="546.52" fill="rgba(9, 191, 159, 0.14)"></circle><circle r="5" cx="513.11" cy="689.62" fill="rgba(9, 191, 159, 0.14)"></circle><circle r="5" cx="699.09" cy="213.25" fill="rgba(9, 191, 159, 0.14)"></circle><circle r="5" cx="698.52" cy="343.13" fill="rgba(9, 191, 159, 0.14)"></circle><circle r="5" cx="652.76" cy="502.22" fill="rgba(9, 191, 159, 0.14)"></circle><circle r="5" cx="704.86" cy="670.64" fill="rgba(9, 191, 159, 0.14)"></circle><circle r="5" cx="831.3" cy="91.95" fill="rgba(9, 191, 159, 0.14)"></circle><circle r="5" cx="841.97" cy="225.07" fill="rgba(9, 191, 159, 0.14)"></circle><circle r="5" cx="796.86" cy="371.35" fill="rgba(9, 191, 159, 0.14)"></circle><circle r="5" cx="809.54" cy="490.82" fill="rgba(9, 191, 159, 0.14)"></circle><circle r="5" cx="821.92" cy="707.95" fill="rgba(9, 191, 159, 0.14)"></circle><circle r="5" cx="941.38" cy="-61.03" fill="rgba(9, 191, 159, 0.14)"></circle><circle r="5" cx="999.2" cy="90.44" fill="rgba(9, 191, 159, 0.14)"></circle><circle r="5" cx="957.41" cy="369.73" fill="rgba(9, 191, 159, 0.14)"></circle><circle r="5" cx="963.36" cy="508.72" fill="rgba(9, 191, 159, 0.14)"></circle><circle r="5" cx="970.54" cy="710.99" fill="rgba(9, 191, 159, 0.14)"></circle><circle r="5" cx="1115.22" cy="-75.97" fill="rgba(9, 191, 159, 0.14)"></circle><circle r="5" cx="1091.14" cy="81.91" fill="rgba(9, 191, 159, 0.14)"></circle><circle r="5" cx="1147.59" cy="228.1" fill="rgba(9, 191, 159, 0.14)"></circle><circle r="5" cx="1152.19" cy="360.02" fill="rgba(9, 191, 159, 0.14)"></circle><circle r="5" cx="1125.13" cy="561.59" fill="rgba(9, 191, 159, 0.14)"></circle><circle r="5" cx="1112.39" cy="712.45" fill="rgba(9, 191, 159, 0.14)"></circle><circle r="5" cx="1300.46" cy="-64.53" fill="rgba(9, 191, 159, 0.14)"></circle><circle r="5" cx="1277.18" cy="55.76" fill="rgba(9, 191, 159, 0.14)"></circle><circle r="5" cx="1249.15" cy="208.69" fill="rgba(9, 191, 159, 0.14)"></circle><circle r="5" cx="1274.04" cy="410.02" fill="rgba(9, 191, 159, 0.14)"></circle><circle r="5" cx="1298.58" cy="528.88" fill="rgba(9, 191, 159, 0.14)"></circle><circle r="5" cx="1280.47" cy="669.38" fill="rgba(9, 191, 159, 0.14)"></circle><circle r="5" cx="1435.71" cy="95.1" fill="rgba(9, 191, 159, 0.14)"></circle><circle r="5" cx="1430.09" cy="261.83" fill="rgba(9, 191, 159, 0.14)"></circle><circle r="5" cx="1448.18" cy="339.46" fill="rgba(9, 191, 159, 0.14)"></circle><circle r="5" cx="1408.34" cy="544.41" fill="rgba(9, 191, 159, 0.14)"></circle><circle r="5" cx="1406.11" cy="650.7" fill="rgba(9, 191, 159, 0.14)"></circle><circle r="5" cx="1607.92" cy="-38.48" fill="rgba(9, 191, 159, 0.14)"></circle><circle r="5" cx="1588.31" cy="104.3" fill="rgba(9, 191, 159, 0.14)"></circle><circle r="5" cx="1559.61" cy="220.43" fill="rgba(9, 191, 159, 0.14)"></circle><circle r="5" cx="1610.62" cy="382.25" fill="rgba(9, 191, 159, 0.14)"></circle><circle r="5" cx="1590.18" cy="533.97" fill="rgba(9, 191, 159, 0.14)"></circle><circle r="5" cx="1605.74" cy="637.9" fill="rgba(9, 191, 159, 0.14)"></circle><path d="M391.86 638.35L391.86 638.35" stroke="hsla(131.2, 77.2%, 51.5%, 0.1)" stroke-width="1.5"></path><path d="M391.86 638.35L351.08 527.6" stroke="hsla(131.2, 77.2%, 51.5%, 0.1)" stroke-width="1.5"></path><path d="M391.86 638.35L498.14 704.4" stroke="hsla(131.2, 77.2%, 51.5%, 0.1)" stroke-width="1.5"></path><path d="M391.86 638.35L245.48 681.43" stroke="hsla(131.2, 77.2%, 51.5%, 0.1)" stroke-width="1.5"></path><path d="M391.86 638.35L240.67 494.32" stroke="hsla(131.2, 77.2%, 51.5%, 0.1)" stroke-width="1.5"></path><path d="M391.86 638.35L562.4 507.66" stroke="hsla(131.2, 77.2%, 51.5%, 0.1)" stroke-width="1.5"></path><path d="M662.36 394.43L662.36 394.43" stroke="hsla(131.2, 77.2%, 51.5%, 0.1)" stroke-width="1.5"></path><path d="M662.36 394.43L639.67 537.62" stroke="hsla(131.2, 77.2%, 51.5%, 0.1)" stroke-width="1.5"></path><path d="M662.36 394.43L562.4 507.66" stroke="hsla(131.2, 77.2%, 51.5%, 0.1)" stroke-width="1.5"></path><path d="M662.36 394.43L494.51 406.09" stroke="hsla(131.2, 77.2%, 51.5%, 0.1)" stroke-width="1.5"></path><path d="M639.67 537.62L639.67 537.62" stroke="hsla(131.2, 77.2%, 51.5%, 0.1)" stroke-width="1.5"></path><path d="M639.67 537.62L562.4 507.66" stroke="hsla(131.2, 77.2%, 51.5%, 0.1)" stroke-width="1.5"></path><path d="M639.67 537.62L669.09 647.21" stroke="hsla(131.2, 77.2%, 51.5%, 0.1)" stroke-width="1.5"></path><path d="M861.7 545.97L861.7 545.97" stroke="hsla(131.2, 77.2%, 51.5%, 0.1)" stroke-width="1.5"></path><path d="M861.7 545.97L807.66 670.81" stroke="hsla(131.2, 77.2%, 51.5%, 0.1)" stroke-width="1.5"></path><path d="M861.7 545.97L989.02 638.58" stroke="hsla(131.2, 77.2%, 51.5%, 0.1)" stroke-width="1.5"></path><path d="M861.7 545.97L1010.24 490.48" stroke="hsla(131.2, 77.2%, 51.5%, 0.1)" stroke-width="1.5"></path><path d="M1154.51 235.76L1154.51 235.76" stroke="hsla(131.2, 77.2%, 51.5%, 0.1)" stroke-width="1.5"></path><path d="M1154.51 235.76L1136.77 366.3" stroke="hsla(131.2, 77.2%, 51.5%, 0.1)" stroke-width="1.5"></path><path d="M1154.51 235.76L1308.1 258.95" stroke="hsla(131.2, 77.2%, 51.5%, 0.1)" stroke-width="1.5"></path><path d="M1125.3 546.09L1125.3 546.09" stroke="hsla(131.2, 77.2%, 51.5%, 0.1)" stroke-width="1.5"></path><path d="M1125.3 546.09L1099.4 670.38" stroke="hsla(131.2, 77.2%, 51.5%, 0.1)" stroke-width="1.5"></path><path d="M1125.3 546.09L1010.24 490.48" stroke="hsla(131.2, 77.2%, 51.5%, 0.1)" stroke-width="1.5"></path><path d="M1125.3 546.09L1262.28 508.68" stroke="hsla(131.2, 77.2%, 51.5%, 0.1)" stroke-width="1.5"></path><path d="M1125.3 546.09L989.02 638.58" stroke="hsla(131.2, 77.2%, 51.5%, 0.1)" stroke-width="1.5"></path><path d="M1585.84 351.3L1585.84 351.3" stroke="hsla(131.2, 77.2%, 51.5%, 0.1)" stroke-width="1.5"></path><path d="M1585.84 351.3L1539.2 257.28" stroke="hsla(131.2, 77.2%, 51.5%, 0.1)" stroke-width="1.5"></path><path d="M1585.84 351.3L1573.7 502.77" stroke="hsla(131.2, 77.2%, 51.5%, 0.1)" stroke-width="1.5"></path><path d="M1585.84 351.3L1428.19 380.43" stroke="hsla(131.2, 77.2%, 51.5%, 0.1)" stroke-width="1.5"></path><path d="M1585.84 351.3L1593.43 74.74" stroke="hsla(131.2, 77.2%, 51.5%, 0.1)" stroke-width="1.5"></path><path d="M1585.84 351.3L1308.1 258.95" stroke="hsla(131.2, 77.2%, 51.5%, 0.1)" stroke-width="1.5"></path><path d="M1585.84 351.3L1596.15 665.48" stroke="hsla(131.2, 77.2%, 51.5%, 0.1)" stroke-width="1.5"></path><path d="M1596.15 665.48L1596.15 665.48" stroke="hsla(131.2, 77.2%, 51.5%, 0.1)" stroke-width="1.5"></path><path d="M1596.15 665.48L1573.7 502.77" stroke="hsla(131.2, 77.2%, 51.5%, 0.1)" stroke-width="1.5"></path><path d="M1596.15 665.48L1308.47 695.96" stroke="hsla(131.2, 77.2%, 51.5%, 0.1)" stroke-width="1.5"></path><path d="M-53.85 549.76L-53.85 549.76" stroke="hsla(131.2, 77.2%, 51.5%, 0.1)" stroke-width="1.5"></path><path d="M-53.85 549.76L40.07 524.22" stroke="hsla(131.2, 77.2%, 51.5%, 0.1)" stroke-width="1.5"></path><path d="M-53.85 549.76L-85.03 675.9" stroke="hsla(131.2, 77.2%, 51.5%, 0.1)" stroke-width="1.5"></path><path d="M-53.85 549.76L240.67 494.32" stroke="hsla(131.2, 77.2%, 51.5%, 0.1)" stroke-width="1.5"></path><path d="M-85.03 675.9L-85.03 675.9" stroke="hsla(131.2, 77.2%, 51.5%, 0.1)" stroke-width="1.5"></path><path d="M40.07 524.22L40.07 524.22" stroke="hsla(131.2, 77.2%, 51.5%, 0.1)" stroke-width="1.5"></path><path d="M40.07 524.22L-85.03 675.9" stroke="hsla(131.2, 77.2%, 51.5%, 0.1)" stroke-width="1.5"></path><path d="M40.07 524.22L240.67 494.32" stroke="hsla(131.2, 77.2%, 51.5%, 0.1)" stroke-width="1.5"></path><path d="M40.07 524.22L245.48 681.43" stroke="hsla(131.2, 77.2%, 51.5%, 0.1)" stroke-width="1.5"></path><path d="M240.67 494.32L240.67 494.32" stroke="hsla(131.2, 77.2%, 51.5%, 0.1)" stroke-width="1.5"></path><path d="M240.67 494.32L351.08 527.6" stroke="hsla(131.2, 77.2%, 51.5%, 0.1)" stroke-width="1.5"></path><path d="M240.67 494.32L245.48 681.43" stroke="hsla(131.2, 77.2%, 51.5%, 0.1)" stroke-width="1.5"></path><path d="M245.48 681.43L245.48 681.43" stroke="hsla(131.2, 77.2%, 51.5%, 0.1)" stroke-width="1.5"></path><path d="M245.48 681.43L351.08 527.6" stroke="hsla(131.2, 77.2%, 51.5%, 0.1)" stroke-width="1.5"></path><path d="M351.08 527.6L351.08 527.6" stroke="hsla(131.2, 77.2%, 51.5%, 0.1)" stroke-width="1.5"></path><path d="M351.08 527.6L494.51 406.09" stroke="hsla(131.2, 77.2%, 51.5%, 0.1)" stroke-width="1.5"></path><path d="M351.08 527.6L562.4 507.66" stroke="hsla(131.2, 77.2%, 51.5%, 0.1)" stroke-width="1.5"></path><path d="M494.51 406.09L494.51 406.09" stroke="hsla(131.2, 77.2%, 51.5%, 0.1)" stroke-width="1.5"></path><path d="M494.51 406.09L562.4 507.66" stroke="hsla(131.2, 77.2%, 51.5%, 0.1)" stroke-width="1.5"></path><path d="M562.4 507.66L562.4 507.66" stroke="hsla(131.2, 77.2%, 51.5%, 0.1)" stroke-width="1.5"></path><path d="M498.14 704.4L498.14 704.4" stroke="hsla(131.2, 77.2%, 51.5%, 0.1)" stroke-width="1.5"></path><path d="M498.14 704.4L669.09 647.21" stroke="hsla(131.2, 77.2%, 51.5%, 0.1)" stroke-width="1.5"></path><path d="M498.14 704.4L562.4 507.66" stroke="hsla(131.2, 77.2%, 51.5%, 0.1)" stroke-width="1.5"></path><path d="M498.14 704.4L639.67 537.62" stroke="hsla(131.2, 77.2%, 51.5%, 0.1)" stroke-width="1.5"></path><path d="M669.09 647.21L669.09 647.21" stroke="hsla(131.2, 77.2%, 51.5%, 0.1)" stroke-width="1.5"></path><path d="M669.09 647.21L807.66 670.81" stroke="hsla(131.2, 77.2%, 51.5%, 0.1)" stroke-width="1.5"></path><path d="M669.09 647.21L562.4 507.66" stroke="hsla(131.2, 77.2%, 51.5%, 0.1)" stroke-width="1.5"></path><path d="M669.09 647.21L861.7 545.97" stroke="hsla(131.2, 77.2%, 51.5%, 0.1)" stroke-width="1.5"></path><path d="M857.52 368.19L857.52 368.19" stroke="hsla(131.2, 77.2%, 51.5%, 0.1)" stroke-width="1.5"></path><path d="M857.52 368.19L971.93 343.48" stroke="hsla(131.2, 77.2%, 51.5%, 0.1)" stroke-width="1.5"></path><path d="M857.52 368.19L861.7 545.97" stroke="hsla(131.2, 77.2%, 51.5%, 0.1)" stroke-width="1.5"></path><path d="M807.66 670.81L807.66 670.81" stroke="hsla(131.2, 77.2%, 51.5%, 0.1)" stroke-width="1.5"></path><path d="M807.66 670.81L989.02 638.58" stroke="hsla(131.2, 77.2%, 51.5%, 0.1)" stroke-width="1.5"></path><path d="M807.66 670.81L639.67 537.62" stroke="hsla(131.2, 77.2%, 51.5%, 0.1)" stroke-width="1.5"></path><path d="M807.66 670.81L1010.24 490.48" stroke="hsla(131.2, 77.2%, 51.5%, 0.1)" stroke-width="1.5"></path><path d="M971.93 343.48L971.93 343.48" stroke="hsla(131.2, 77.2%, 51.5%, 0.1)" stroke-width="1.5"></path><path d="M971.93 343.48L1010.24 490.48" stroke="hsla(131.2, 77.2%, 51.5%, 0.1)" stroke-width="1.5"></path><path d="M971.93 343.48L1136.77 366.3" stroke="hsla(131.2, 77.2%, 51.5%, 0.1)" stroke-width="1.5"></path><path d="M971.93 343.48L1154.51 235.76" stroke="hsla(131.2, 77.2%, 51.5%, 0.1)" stroke-width="1.5"></path><path d="M971.93 343.48L861.7 545.97" stroke="hsla(131.2, 77.2%, 51.5%, 0.1)" stroke-width="1.5"></path><path d="M971.93 343.48L1125.3 546.09" stroke="hsla(131.2, 77.2%, 51.5%, 0.1)" stroke-width="1.5"></path><path d="M1010.24 490.48L1010.24 490.48" stroke="hsla(131.2, 77.2%, 51.5%, 0.1)" stroke-width="1.5"></path><path d="M1010.24 490.48L989.02 638.58" stroke="hsla(131.2, 77.2%, 51.5%, 0.1)" stroke-width="1.5"></path><path d="M989.02 638.58L989.02 638.58" stroke="hsla(131.2, 77.2%, 51.5%, 0.1)" stroke-width="1.5"></path><path d="M989.02 638.58L1099.4 670.38" stroke="hsla(131.2, 77.2%, 51.5%, 0.1)" stroke-width="1.5"></path><path d="M1136.77 366.3L1136.77 366.3" stroke="hsla(131.2, 77.2%, 51.5%, 0.1)" stroke-width="1.5"></path><path d="M1136.77 366.3L1252.55 399.17" stroke="hsla(131.2, 77.2%, 51.5%, 0.1)" stroke-width="1.5"></path><path d="M1099.4 670.38L1099.4 670.38" stroke="hsla(131.2, 77.2%, 51.5%, 0.1)" stroke-width="1.5"></path><path d="M1099.4 670.38L1010.24 490.48" stroke="hsla(131.2, 77.2%, 51.5%, 0.1)" stroke-width="1.5"></path><path d="M1099.4 670.38L1308.47 695.96" stroke="hsla(131.2, 77.2%, 51.5%, 0.1)" stroke-width="1.5"></path><path d="M1099.4 670.38L1262.28 508.68" stroke="hsla(131.2, 77.2%, 51.5%, 0.1)" stroke-width="1.5"></path><path d="M1285.81 -78.54L1285.81 -78.54" stroke="hsla(131.2, 77.2%, 51.5%, 0.1)" stroke-width="1.5"></path><path d="M1285.81 -78.54L1405.74 -110.04" stroke="hsla(131.2, 77.2%, 51.5%, 0.1)" stroke-width="1.5"></path><path d="M1285.81 -78.54L1238.39 76.13" stroke="hsla(131.2, 77.2%, 51.5%, 0.1)" stroke-width="1.5"></path><path d="M1238.39 76.13L1238.39 76.13" stroke="hsla(131.2, 77.2%, 51.5%, 0.1)" stroke-width="1.5"></path><path d="M1238.39 76.13L1154.51 235.76" stroke="hsla(131.2, 77.2%, 51.5%, 0.1)" stroke-width="1.5"></path><path d="M1238.39 76.13L1308.1 258.95" stroke="hsla(131.2, 77.2%, 51.5%, 0.1)" stroke-width="1.5"></path><path d="M1238.39 76.13L1405.74 -110.04" stroke="hsla(131.2, 77.2%, 51.5%, 0.1)" stroke-width="1.5"></path><path d="M1308.1 258.95L1308.1 258.95" stroke="hsla(131.2, 77.2%, 51.5%, 0.1)" stroke-width="1.5"></path><path d="M1308.1 258.95L1252.55 399.17" stroke="hsla(131.2, 77.2%, 51.5%, 0.1)" stroke-width="1.5"></path><path d="M1308.1 258.95L1428.19 380.43" stroke="hsla(131.2, 77.2%, 51.5%, 0.1)" stroke-width="1.5"></path><path d="M1252.55 399.17L1252.55 399.17" stroke="hsla(131.2, 77.2%, 51.5%, 0.1)" stroke-width="1.5"></path><path d="M1252.55 399.17L1262.28 508.68" stroke="hsla(131.2, 77.2%, 51.5%, 0.1)" stroke-width="1.5"></path><path d="M1262.28 508.68L1262.28 508.68" stroke="hsla(131.2, 77.2%, 51.5%, 0.1)" stroke-width="1.5"></path><path d="M1262.28 508.68L1136.77 366.3" stroke="hsla(131.2, 77.2%, 51.5%, 0.1)" stroke-width="1.5"></path><path d="M1262.28 508.68L1308.47 695.96" stroke="hsla(131.2, 77.2%, 51.5%, 0.1)" stroke-width="1.5"></path><path d="M1262.28 508.68L1428.19 380.43" stroke="hsla(131.2, 77.2%, 51.5%, 0.1)" stroke-width="1.5"></path><path d="M1308.47 695.96L1308.47 695.96" stroke="hsla(131.2, 77.2%, 51.5%, 0.1)" stroke-width="1.5"></path><path d="M1308.47 695.96L1125.3 546.09" stroke="hsla(131.2, 77.2%, 51.5%, 0.1)" stroke-width="1.5"></path><path d="M1405.74 -110.04L1405.74 -110.04" stroke="hsla(131.2, 77.2%, 51.5%, 0.1)" stroke-width="1.5"></path><path d="M1405.74 -110.04L1542.46 -46.49" stroke="hsla(131.2, 77.2%, 51.5%, 0.1)" stroke-width="1.5"></path><path d="M1405.74 -110.04L1593.43 74.74" stroke="hsla(131.2, 77.2%, 51.5%, 0.1)" stroke-width="1.5"></path><path d="M1405.74 -110.04L1308.1 258.95" stroke="hsla(131.2, 77.2%, 51.5%, 0.1)" stroke-width="1.5"></path><path d="M1428.19 380.43L1428.19 380.43" stroke="hsla(131.2, 77.2%, 51.5%, 0.1)" stroke-width="1.5"></path><path d="M1428.19 380.43L1539.2 257.28" stroke="hsla(131.2, 77.2%, 51.5%, 0.1)" stroke-width="1.5"></path><path d="M1428.19 380.43L1252.55 399.17" stroke="hsla(131.2, 77.2%, 51.5%, 0.1)" stroke-width="1.5"></path><path d="M1428.19 380.43L1573.7 502.77" stroke="hsla(131.2, 77.2%, 51.5%, 0.1)" stroke-width="1.5"></path><path d="M1542.46 -46.49L1542.46 -46.49" stroke="hsla(131.2, 77.2%, 51.5%, 0.1)" stroke-width="1.5"></path><path d="M1542.46 -46.49L1593.43 74.74" stroke="hsla(131.2, 77.2%, 51.5%, 0.1)" stroke-width="1.5"></path><path d="M1593.43 74.74L1593.43 74.74" stroke="hsla(131.2, 77.2%, 51.5%, 0.1)" stroke-width="1.5"></path><path d="M1593.43 74.74L1539.2 257.28" stroke="hsla(131.2, 77.2%, 51.5%, 0.1)" stroke-width="1.5"></path><path d="M1593.43 74.74L1308.1 258.95" stroke="hsla(131.2, 77.2%, 51.5%, 0.1)" stroke-width="1.5"></path><path d="M1593.43 74.74L1285.81 -78.54" stroke="hsla(131.2, 77.2%, 51.5%, 0.1)" stroke-width="1.5"></path><path d="M1539.2 257.28L1539.2 257.28" stroke="hsla(131.2, 77.2%, 51.5%, 0.1)" stroke-width="1.5"></path><path d="M1573.7 502.77L1573.7 502.77" stroke="hsla(131.2, 77.2%, 51.5%, 0.1)" stroke-width="1.5"></path><path d="M1573.7 502.77L1539.2 257.28" stroke="hsla(131.2, 77.2%, 51.5%, 0.1)" stroke-width="1.5"></path><path d="M1573.7 502.77L1262.28 508.68" stroke="hsla(131.2, 77.2%, 51.5%, 0.1)" stroke-width="1.5"></path><path d="M1573.7 502.77L1308.47 695.96" stroke="hsla(131.2, 77.2%, 51.5%, 0.1)" stroke-width="1.5"></path><circle r="25" cx="391.86" cy="638.35" fill="url(&quot;#SvgjsRadialGradient3151&quot;)"></circle><circle r="25" cx="662.36" cy="394.43" fill="url(&quot;#SvgjsRadialGradient3151&quot;)"></circle><circle r="25" cx="639.67" cy="537.62" fill="url(&quot;#SvgjsRadialGradient3151&quot;)"></circle><circle r="25" cx="861.7" cy="545.97" fill="url(&quot;#SvgjsRadialGradient3151&quot;)"></circle><circle r="25" cx="1154.51" cy="235.76" fill="url(&quot;#SvgjsRadialGradient3151&quot;)"></circle><circle r="25" cx="1125.3" cy="546.09" fill="url(&quot;#SvgjsRadialGradient3151&quot;)"></circle><circle r="25" cx="1585.84" cy="351.3" fill="url(&quot;#SvgjsRadialGradient3151&quot;)"></circle><circle r="25" cx="1596.15" cy="665.48" fill="url(&quot;#SvgjsRadialGradient3151&quot;)"></circle><circle r="5" cx="-53.85" cy="549.76" fill="rgba(243, 251, 245, 0.55)"></circle><circle r="5" cx="-85.03" cy="675.9" fill="rgba(243, 251, 245, 0.55)"></circle><circle r="5" cx="40.07" cy="524.22" fill="rgba(243, 251, 245, 0.55)"></circle><circle r="5" cx="240.67" cy="494.32" fill="rgba(243, 251, 245, 0.55)"></circle><circle r="5" cx="245.48" cy="681.43" fill="rgba(243, 251, 245, 0.55)"></circle><circle r="5" cx="351.08" cy="527.6" fill="rgba(243, 251, 245, 0.55)"></circle><circle r="5" cx="494.51" cy="406.09" fill="rgba(243, 251, 245, 0.55)"></circle><circle r="5" cx="562.4" cy="507.66" fill="rgba(243, 251, 245, 0.55)"></circle><circle r="5" cx="498.14" cy="704.4" fill="rgba(243, 251, 245, 0.55)"></circle><circle r="5" cx="669.09" cy="647.21" fill="rgba(243, 251, 245, 0.55)"></circle><circle r="5" cx="857.52" cy="368.19" fill="rgba(243, 251, 245, 0.55)"></circle><circle r="5" cx="807.66" cy="670.81" fill="rgba(243, 251, 245, 0.55)"></circle><circle r="5" cx="971.93" cy="343.48" fill="rgba(243, 251, 245, 0.55)"></circle><circle r="5" cx="1010.24" cy="490.48" fill="rgba(243, 251, 245, 0.55)"></circle><circle r="5" cx="989.02" cy="638.58" fill="rgba(243, 251, 245, 0.55)"></circle><circle r="5" cx="1136.77" cy="366.3" fill="rgba(243, 251, 245, 0.55)"></circle><circle r="5" cx="1099.4" cy="670.38" fill="rgba(243, 251, 245, 0.55)"></circle><circle r="5" cx="1285.81" cy="-78.54" fill="rgba(243, 251, 245, 0.55)"></circle><circle r="5" cx="1238.39" cy="76.13" fill="rgba(243, 251, 245, 0.55)"></circle><circle r="5" cx="1308.1" cy="258.95" fill="rgba(243, 251, 245, 0.55)"></circle><circle r="5" cx="1252.55" cy="399.17" fill="rgba(243, 251, 245, 0.55)"></circle><circle r="5" cx="1262.28" cy="508.68" fill="rgba(243, 251, 245, 0.55)"></circle><circle r="5" cx="1308.47" cy="695.96" fill="rgba(243, 251, 245, 0.55)"></circle><circle r="5" cx="1405.74" cy="-110.04" fill="rgba(243, 251, 245, 0.55)"></circle><circle r="5" cx="1428.19" cy="380.43" fill="rgba(243, 251, 245, 0.55)"></circle><circle r="5" cx="1542.46" cy="-46.49" fill="rgba(243, 251, 245, 0.55)"></circle><circle r="5" cx="1593.43" cy="74.74" fill="rgba(243, 251, 245, 0.55)"></circle><circle r="5" cx="1539.2" cy="257.28" fill="rgba(243, 251, 245, 0.55)"></circle><circle r="5" cx="1573.7" cy="502.77" fill="rgba(243, 251, 245, 0.55)"></circle></g><defs><mask id="SvgjsMask3149"><rect width="1440" height="560" fill="#ffffff"></rect></mask><linearGradient x1="84.72%" y1="139.29%" x2="15.28%" y2="-39.29%" gradientUnits="userSpaceOnUse" id="SvgjsLinearGradient3150"><stop stop-color="rgba(14, 42, 71, 1)" offset="0.02"></stop><stop stop-color="rgba(75, 160, 117, 1)" offset="0.8"></stop></linearGradient><radialGradient id="SvgjsRadialGradient3151"><stop stop-color="#ffffff" offset="0.1"></stop><stop stop-color="rgba(23, 179, 52, 0.1)" offset="0.2"></stop><stop stop-color="rgba(23, 179, 52, 0)" offset="1"></stop></radialGradient></defs></svg>